<mxfile host="app.diagrams.net" modified="2022-08-09T12:20:14.810Z" agent="5.0 (Windows NT 10.0; Win64; x64) AppleWebKit/537.36 (KHTML, like Gecko) Chrome/104.0.5112.81 Safari/537.36 Edg/104.0.1293.47" etag="cH1M1a3sdc60GqHV9sD4" version="20.2.3" type="github">
  <diagram id="R2lEEEUBdFMjLlhIrx00" name="Page-1">
    <mxGraphModel dx="2587" dy="786" grid="1" gridSize="10" guides="1" tooltips="1" connect="1" arrows="1" fold="1" page="1" pageScale="1" pageWidth="850" pageHeight="1100" math="0" shadow="0" extFonts="Permanent Marker^https://fonts.googleapis.com/css?family=Permanent+Marker">
      <root>
        <mxCell id="0" />
        <mxCell id="1" parent="0" />
        <mxCell id="O4Ch82XBIU3XWNzRmCGs-18" value="Attribute" style="ellipse;whiteSpace=wrap;html=1;align=center;" vertex="1" parent="1">
          <mxGeometry x="270" y="20" width="100" height="40" as="geometry" />
        </mxCell>
        <mxCell id="O4Ch82XBIU3XWNzRmCGs-25" style="rounded=0;orthogonalLoop=1;jettySize=auto;html=1;exitX=0.121;exitY=0.014;exitDx=0;exitDy=0;entryX=0.5;entryY=1;entryDx=0;entryDy=0;endArrow=none;endFill=0;exitPerimeter=0;" edge="1" parent="1" source="O4Ch82XBIU3XWNzRmCGs-19" target="O4Ch82XBIU3XWNzRmCGs-18">
          <mxGeometry relative="1" as="geometry">
            <mxPoint x="136" y="70" as="targetPoint" />
          </mxGeometry>
        </mxCell>
        <mxCell id="O4Ch82XBIU3XWNzRmCGs-19" value="下属单位" style="whiteSpace=wrap;html=1;align=center;" vertex="1" parent="1">
          <mxGeometry x="355" y="100" width="140" height="80" as="geometry" />
        </mxCell>
        <mxCell id="O4Ch82XBIU3XWNzRmCGs-30" style="edgeStyle=none;rounded=1;orthogonalLoop=1;jettySize=auto;html=1;exitX=1;exitY=0.5;exitDx=0;exitDy=0;entryX=0;entryY=0.5;entryDx=0;entryDy=0;fontSize=24;endArrow=none;endFill=0;" edge="1" parent="1" source="O4Ch82XBIU3XWNzRmCGs-20" target="O4Ch82XBIU3XWNzRmCGs-29">
          <mxGeometry relative="1" as="geometry" />
        </mxCell>
        <mxCell id="O4Ch82XBIU3XWNzRmCGs-33" style="edgeStyle=none;rounded=1;orthogonalLoop=1;jettySize=auto;html=1;exitX=1;exitY=1;exitDx=0;exitDy=0;entryX=0;entryY=0.5;entryDx=0;entryDy=0;fontSize=24;endArrow=none;endFill=0;" edge="1" parent="1" source="O4Ch82XBIU3XWNzRmCGs-20" target="O4Ch82XBIU3XWNzRmCGs-32">
          <mxGeometry relative="1" as="geometry" />
        </mxCell>
        <mxCell id="O4Ch82XBIU3XWNzRmCGs-20" value="职工" style="whiteSpace=wrap;html=1;align=center;" vertex="1" parent="1">
          <mxGeometry x="-70" y="100" width="150" height="80" as="geometry" />
        </mxCell>
        <mxCell id="O4Ch82XBIU3XWNzRmCGs-21" value="设备" style="whiteSpace=wrap;html=1;align=center;" vertex="1" parent="1">
          <mxGeometry x="165" y="570" width="115" height="60" as="geometry" />
        </mxCell>
        <mxCell id="O4Ch82XBIU3XWNzRmCGs-42" style="edgeStyle=none;rounded=1;orthogonalLoop=1;jettySize=auto;html=1;exitX=0;exitY=0;exitDx=0;exitDy=0;entryX=1;entryY=0.5;entryDx=0;entryDy=0;fontSize=24;endArrow=none;endFill=0;" edge="1" parent="1" source="O4Ch82XBIU3XWNzRmCGs-22" target="O4Ch82XBIU3XWNzRmCGs-41">
          <mxGeometry relative="1" as="geometry" />
        </mxCell>
        <mxCell id="O4Ch82XBIU3XWNzRmCGs-22" value="供应商" style="whiteSpace=wrap;html=1;align=center;" vertex="1" parent="1">
          <mxGeometry x="450" y="590" width="150" height="80" as="geometry" />
        </mxCell>
        <mxCell id="O4Ch82XBIU3XWNzRmCGs-43" style="edgeStyle=none;rounded=1;orthogonalLoop=1;jettySize=auto;html=1;exitX=1;exitY=1;exitDx=0;exitDy=0;entryX=0;entryY=0.5;entryDx=0;entryDy=0;fontSize=24;endArrow=none;endFill=0;" edge="1" parent="1" source="O4Ch82XBIU3XWNzRmCGs-23" target="O4Ch82XBIU3XWNzRmCGs-41">
          <mxGeometry relative="1" as="geometry" />
        </mxCell>
        <mxCell id="O4Ch82XBIU3XWNzRmCGs-23" value="工程" style="whiteSpace=wrap;html=1;align=center;" vertex="1" parent="1">
          <mxGeometry x="200" y="350" width="150" height="80" as="geometry" />
        </mxCell>
        <mxCell id="O4Ch82XBIU3XWNzRmCGs-27" value="&lt;font style=&quot;font-size: 24px;&quot;&gt;*&lt;/font&gt;" style="text;html=1;align=center;verticalAlign=middle;resizable=0;points=[];autosize=1;strokeColor=none;fillColor=none;" vertex="1" parent="1">
          <mxGeometry x="85" y="100" width="30" height="40" as="geometry" />
        </mxCell>
        <mxCell id="O4Ch82XBIU3XWNzRmCGs-28" value="&lt;font style=&quot;font-size: 24px;&quot;&gt;1&lt;/font&gt;" style="text;html=1;align=center;verticalAlign=middle;resizable=0;points=[];autosize=1;strokeColor=none;fillColor=none;" vertex="1" parent="1">
          <mxGeometry x="320" y="100" width="40" height="40" as="geometry" />
        </mxCell>
        <mxCell id="O4Ch82XBIU3XWNzRmCGs-31" style="edgeStyle=none;rounded=1;orthogonalLoop=1;jettySize=auto;html=1;fontSize=24;endArrow=none;endFill=0;" edge="1" parent="1" source="O4Ch82XBIU3XWNzRmCGs-29" target="O4Ch82XBIU3XWNzRmCGs-19">
          <mxGeometry relative="1" as="geometry" />
        </mxCell>
        <mxCell id="O4Ch82XBIU3XWNzRmCGs-29" value="属于" style="shape=rhombus;perimeter=rhombusPerimeter;whiteSpace=wrap;html=1;align=center;fontSize=24;" vertex="1" parent="1">
          <mxGeometry x="160" y="110" width="120" height="60" as="geometry" />
        </mxCell>
        <mxCell id="O4Ch82XBIU3XWNzRmCGs-34" style="edgeStyle=none;rounded=1;orthogonalLoop=1;jettySize=auto;html=1;exitX=1;exitY=0.5;exitDx=0;exitDy=0;entryX=0;entryY=0;entryDx=0;entryDy=0;fontSize=24;endArrow=none;endFill=0;" edge="1" parent="1" source="O4Ch82XBIU3XWNzRmCGs-32" target="O4Ch82XBIU3XWNzRmCGs-23">
          <mxGeometry relative="1" as="geometry" />
        </mxCell>
        <mxCell id="O4Ch82XBIU3XWNzRmCGs-32" value="工作" style="shape=rhombus;perimeter=rhombusPerimeter;whiteSpace=wrap;html=1;align=center;fontSize=24;rotation=55;" vertex="1" parent="1">
          <mxGeometry x="85" y="240" width="110" height="50" as="geometry" />
        </mxCell>
        <mxCell id="O4Ch82XBIU3XWNzRmCGs-35" value="*" style="text;html=1;align=center;verticalAlign=middle;resizable=0;points=[];autosize=1;strokeColor=none;fillColor=none;fontSize=24;" vertex="1" parent="1">
          <mxGeometry x="90" y="170" width="30" height="40" as="geometry" />
        </mxCell>
        <mxCell id="O4Ch82XBIU3XWNzRmCGs-36" value="1" style="text;html=1;align=center;verticalAlign=middle;resizable=0;points=[];autosize=1;strokeColor=none;fillColor=none;fontSize=24;" vertex="1" parent="1">
          <mxGeometry x="180" y="310" width="40" height="40" as="geometry" />
        </mxCell>
        <mxCell id="O4Ch82XBIU3XWNzRmCGs-40" style="edgeStyle=none;rounded=1;orthogonalLoop=1;jettySize=auto;html=1;exitX=0.5;exitY=0;exitDx=0;exitDy=0;fontSize=24;endArrow=none;endFill=0;" edge="1" parent="1" source="O4Ch82XBIU3XWNzRmCGs-22" target="O4Ch82XBIU3XWNzRmCGs-22">
          <mxGeometry relative="1" as="geometry" />
        </mxCell>
        <mxCell id="O4Ch82XBIU3XWNzRmCGs-48" style="edgeStyle=none;rounded=1;orthogonalLoop=1;jettySize=auto;html=1;exitX=0.5;exitY=1;exitDx=0;exitDy=0;entryX=1;entryY=0;entryDx=0;entryDy=0;fontSize=24;endArrow=none;endFill=0;" edge="1" parent="1" source="O4Ch82XBIU3XWNzRmCGs-41" target="O4Ch82XBIU3XWNzRmCGs-21">
          <mxGeometry relative="1" as="geometry" />
        </mxCell>
        <mxCell id="O4Ch82XBIU3XWNzRmCGs-41" value="供应" style="shape=rhombus;perimeter=rhombusPerimeter;whiteSpace=wrap;html=1;align=center;fontSize=24;rotation=60;" vertex="1" parent="1">
          <mxGeometry x="350" y="490" width="110" height="50" as="geometry" />
        </mxCell>
        <mxCell id="O4Ch82XBIU3XWNzRmCGs-46" value="*" style="text;html=1;align=center;verticalAlign=middle;resizable=0;points=[];autosize=1;strokeColor=none;fillColor=none;fontSize=24;" vertex="1" parent="1">
          <mxGeometry x="365" y="420" width="30" height="40" as="geometry" />
        </mxCell>
        <mxCell id="O4Ch82XBIU3XWNzRmCGs-47" value="*" style="text;html=1;align=center;verticalAlign=middle;resizable=0;points=[];autosize=1;strokeColor=none;fillColor=none;fontSize=24;" vertex="1" parent="1">
          <mxGeometry x="445" y="550" width="30" height="40" as="geometry" />
        </mxCell>
        <mxCell id="O4Ch82XBIU3XWNzRmCGs-49" value="*" style="text;html=1;align=center;verticalAlign=middle;resizable=0;points=[];autosize=1;strokeColor=none;fillColor=none;fontSize=24;" vertex="1" parent="1">
          <mxGeometry x="305" y="530" width="30" height="40" as="geometry" />
        </mxCell>
      </root>
    </mxGraphModel>
  </diagram>
</mxfile>
